<svg xmlns="http://www.w3.org/2000/svg" version="1.1" xmlns:xlink="http://www.w3.org/1999/xlink" xmlns:svgjs="http://svgjs.dev/svgjs" width="100%" height="100%" viewBox="0 0 1000 600"><rect width="1000" height="600" x="0" y="0" fill="white"/><g><rect width="333.3333333333333" height="333.3333333333333" rx="13.333333333333334" ry="13.333333333333334" y="182.21140147512656" fill="#a2f2cd" transform="matrix(0.7813028530270654,0,0,0.7813028530270655,0,27.420572387238295)" x="159.9892120361328"/><path d="M361.6346106942559 423.8780671941821L361.6346106942559 423.8780671941821L305.98272225065426 423.8780671941821Q282.8435111385218 423.8780671941821 271.8014697806643 411.8545110489596Q260.7594284228069 399.8554927734211 260.7594284228069 380.7650301591697L260.7594284228069 380.7650301591697L260.7594284228069 330.9531547003904Q260.7594284228069 321.2361583054759 263.58128343648156 314.1692518364471Q266.40313845015623 307.1023453674183 271.87508338971674 302.3174607790134L271.87508338971674 302.3174607790134L294.6707643262714 283.05523307697314Q300.14270926583185 278.4666514460413 308.7309636552766 276.18462956541737Q317.2946801750371 273.87806981510937 328.77840318720894 273.87806981510937L328.77840318720894 273.87806981510937L372.9465686186388 273.87806981510937Q377.1916200739929 273.87806981510937 379.130111779039 275.81656152015546Q381.0686034840851 277.75505322520155 381.0686034840851 282.00010468055564L381.0686034840851 282.00010468055564L381.0686034840851 303.3725891754309Q381.0686034840851 305.6791489257389 380.4551567419819 307.2741104552072Q379.8417099998787 308.86907198467554 378.5902786459882 309.924200381093L378.5902786459882 309.924200381093L355.62283262164465 328.99012512566026Q354.9112344008049 329.70172334649993 353.41442435007315 330.24155647955075Q351.9176142993414 330.75685174291743 350.15088768208415 330.75685174291743L350.15088768208415 330.75685174291743L327.1834416577406 330.75685174291743L327.1834416577406 356.2026226053579Q327.3552067455295 355.8590924297801 327.7968883998438 355.4174107754658Q328.2385700541581 354.97572912115146 328.60663809942 354.6076610758896L328.60663809942 354.6076610758896L351.37778116629056 335.3699712435334Q352.26114447491915 334.65837302269375 353.78249239533505 334.21669136837943Q355.2793024460668 333.77500971406516 357.04602906332406 333.77500971406516L357.04602906332406 333.77500971406516L384.4302916308106 333.77500971406516Q388.67534308616473 333.77500971406516 390.61383479121076 335.71350141911125Q392.55232649625685 337.65199312415734 392.55232649625685 341.89704457951143L392.55232649625685 341.89704457951143L392.55232649625685 396.4938046266956Q392.55232649625685 398.7758265073195 391.9388797541537 400.37078803678776Q391.32543301205044 401.9657495662561 390.07400165816 403.0208779626736L390.07400165816 403.0208779626736L367.1065556338164 422.11134057692493Q366.39495741297674 422.82293879776466 364.8981473622449 423.3382340611313Q363.40133731151315 423.8780671941821 361.6346106942559 423.8780671941821ZM328.77840318720894 402.84911287488467L384.4302916308106 402.84911287488467Q387.7919797775361 402.84911287488467 389.2887898282679 401.3523028241529Q390.7855998789996 399.8554927734211 390.7855998789996 396.4938046266956L390.7855998789996 396.4938046266956L390.7855998789996 341.89704457951143Q390.7855998789996 338.53535643278593 389.2887898282679 337.0385463820541Q387.7919797775361 335.54173633132234 384.4302916308106 335.54173633132234L384.4302916308106 335.54173633132234L357.04602906332406 335.54173633132234Q353.68434091659856 335.54173633132234 352.18753086586673 337.0385463820541Q350.69072081513497 338.53535643278593 350.69072081513497 341.89704457951143L350.69072081513497 341.89704457951143L350.69072081513497 369.4530722347869L333.5387499059297 369.4530722347869Q329.4900014080486 369.4530722347869 327.453358224266 367.34281544195187Q325.41671504048344 365.20802077943273 325.41671504048344 360.7912042362898L325.41671504048344 360.7912042362898L325.41671504048344 318.5860683795901Q325.41671504048344 314.1692518364471 328.0668049663692 311.96084356487563Q330.716894892255 309.75243529330413 336.18883983181547 309.75243529330413L336.18883983181547 309.75243529330413L372.9465686186388 309.75243529330413Q376.3082567653643 309.75243529330413 377.8050668160961 308.23108737288817Q379.3018768668279 306.7342773221564 379.3018768668279 303.3725891754309L379.3018768668279 303.3725891754309L379.3018768668279 282.00010468055564Q379.3018768668279 278.6384165338302 377.8050668160961 277.14160648309837Q376.3082567653643 275.64479643236655 372.9465686186388 275.64479643236655L372.9465686186388 275.64479643236655L328.77840318720894 275.64479643236655Q306.69432047149394 275.64479643236655 295.99580928921426 284.47842951865255Q285.32183597661873 293.31206260493855 285.32183597661873 311.69092699835016L285.32183597661873 311.69092699835016L285.32183597661873 366.80298230890105Q285.32183597661873 385.1818467023127 295.99580928921426 394.01547978859867Q306.69432047149394 402.84911287488467 328.77840318720894 402.84911287488467L328.77840318720894 402.84911287488467ZM371.5233721769594 386.9485733195699L336.3606049196044 386.9485733195699Q326.6436085246898 386.9485733195699 320.4600653642896 385.7216798353635Q314.27652220388944 384.47024848147305 310.74306896937503 381.74654494653487Q307.2096157348607 378.99830354191255 305.88457077191777 374.67963847750605Q304.55952580897485 370.33643554341546 304.55952580897485 364.1528923830153L304.55952580897485 364.1528923830153L304.55952580897485 314.68454709981376Q304.55952580897485 302.14569569122455 310.22777370600835 296.8455158394529Q315.87148373335776 291.54533598768137 332.82715168509 291.54533598768137L332.82715168509 291.54533598768137L363.40133731151315 291.54533598768137L363.40133731151315 293.31206260493855L332.82715168509 293.31206260493855Q317.2946801750371 293.31206260493855 311.82273523547667 298.1705608023958Q306.32625242623203 303.0290589998531 306.32625242623203 314.68454709981376L306.32625242623203 314.68454709981376L306.32625242623203 364.1528923830153Q306.32625242623203 375.63661539518705 312.43618197757985 380.42149998359196Q318.52157365924353 385.1818467023127 336.3606049196044 385.1818467023127L336.3606049196044 385.1818467023127L369.7566455597022 385.1818467023127L369.7566455597022 351.4422758866371L371.5233721769594 351.4422758866371L371.5233721769594 386.9485733195699Z " fill="black" transform="matrix(0.7813028530270654,0,0,0.7813028530270655,0,27.420572387238295)"/><path d="M696.7932920943174 393.13211647997014L673.9976111577628 412.3943441820104Q673.1142478491341 413.1059424028501 671.54382418935 413.44947257842784Q669.9488626598816 413.79300275400567 667.8140679973626 413.44947257842784L667.8140679973626 413.44947257842784L600.3349263660114 394.1872448763876Q588.6794382660506 390.8255567296621 582.6676601934394 384.8383165267349Q576.655882120828 378.82653845412364 576.655882120828 365.0362556916439L576.655882120828 365.0362556916439L576.655882120828 352.3256391952657Q576.655882120828 344.2036043298194 578.7906767833472 338.97703808710025Q580.9009335761821 333.77500971406516 584.9742199437474 330.41332156733966L584.9742199437474 330.41332156733966L607.7453630106179 311.1510938652994Q610.5917558939766 308.86907198467554 614.4687393040689 307.1023453674183Q618.3457227141611 305.33561875016113 623.130607302566 303.9124223084817L623.130607302566 303.9124223084817L690.6097489339172 284.65019460644146Q695.0265654770602 283.9385963856017 697.0632086608427 285.63170939380655Q699.0998518446254 287.3002845323272 699.0998518446254 291.88886616325914L699.0998518446254 291.88886616325914L699.0998518446254 315.2243802328646Q699.0998518446254 317.7027050709615 698.3882536237857 319.37128020948217Q697.6766554029459 321.03985534800285 696.4497619187396 322.1195216141045L696.4497619187396 322.1195216141045L673.482315894396 341.3572114464606Q672.5989525857674 342.06880966730034 671.347521231877 342.6086428003511Q670.1206277476706 343.1239380637178 668.6974313059911 343.4920061089797L668.6974313059911 343.4920061089797L658.9804349110766 345.9703309470766L691.3213471547568 354.6076610758896Q695.3946335223221 355.3192592967293 697.2349737486317 357.3559024805119Q699.0998518446254 359.3925456642945 699.0998518446254 363.63759711964855L699.0998518446254 363.63759711964855L699.0998518446254 386.9485733195699Q699.0998518446254 389.25513306987796 698.4864051025222 390.7519431206097Q697.8484204907348 392.2487531713415 696.7932920943174 393.13211647997014L696.7932920943174 393.13211647997014ZM623.6459025659326 373.15829055709014L690.9778169791791 392.4205182591304Q694.3149672562205 393.13211647997014 695.8363151766364 391.70892003829067Q697.3331252273682 390.3102614662954 697.3331252273682 386.9485733195699L697.3331252273682 386.9485733195699L697.3331252273682 363.63759711964855Q697.3331252273682 360.27590897292305 695.8363151766364 358.5827959647183Q694.3149672562205 356.9142208261976 690.9778169791791 356.3743876931468L690.9778169791791 356.3743876931468L640.258040342087 342.78040788814Q638.4913137248299 342.43687771256225 637.8778669827267 341.7252794917225Q637.2644202406235 341.01368127088284 637.2644202406235 339.4187197414145L637.2644202406235 339.4187197414145Q637.2644202406235 337.8237582119462 637.8778669827267 337.13669786079066Q638.4913137248299 336.42509963995093 640.258040342087 336.057031594689L640.258040342087 336.057031594689L690.9778169791791 322.46305178968225Q694.3149672562205 321.92321865663143 695.8363151766364 320.25464351811075Q697.3331252273682 318.5860683795901 697.3331252273682 315.2243802328646L697.3331252273682 315.2243802328646L697.3331252273682 291.88886616325914Q697.3331252273682 288.5517158862177 695.8363151766364 287.12851944453837Q694.3149672562205 285.7053230028589 690.9778169791791 286.41692122369864L690.9778169791791 286.41692122369864L623.6459025659326 305.6791489257389Q612.7020126868117 308.86907198467554 606.9601511807258 314.41463053328835Q601.2182896746399 319.98472695158534 601.2182896746399 333.06341149322543L601.2182896746399 333.06341149322543L601.2182896746399 345.7740279896036Q601.2182896746399 358.8527125312437 606.9601511807258 364.4228089495407Q612.7020126868117 369.9929053678377 623.6459025659326 373.15829055709014L623.6459025659326 373.15829055709014ZM628.7743173299153 356.5706906506198L681.4325856720534 371.75963198509487L681.4325856720534 373.52635860235205L628.4307871543375 358.33741726787696Q624.0139706111945 357.08598591398646 621.0939641187833 354.3622823790483Q618.1739576263722 351.614040974426 618.1739576263722 345.7740279896036L618.1739576263722 345.7740279896036L618.1739576263722 333.06341149322543Q618.1739576263722 327.223398508403 621.0939641187833 324.76961153999025Q624.0139706111945 322.2912867018934 628.4307871543375 321.03985534800285L628.4307871543375 321.03985534800285L681.4325856720534 305.8509140135278L681.4325856720534 307.617640630785L628.7743173299153 322.8065819652601Q625.0690990076121 323.88624823136166 622.5171605604628 325.99650502419667Q619.9406842436293 328.1067618170316 619.9406842436293 333.06341149322543L619.9406842436293 333.06341149322543L619.9406842436293 345.7740279896036Q619.9406842436293 350.73067766579743 622.5171605604628 353.1108510251578Q625.0690990076121 355.4910243845182 628.7743173299153 356.5706906506198L628.7743173299153 356.5706906506198ZM817.4705352008575 423.8780671941821L817.4705352008575 423.8780671941821L761.8186467572558 423.8780671941821Q738.6794356451234 423.8780671941821 727.6373942872659 411.8545110489596Q716.5953529294085 399.8554927734211 716.5953529294085 380.7650301591697L716.5953529294085 380.7650301591697L716.5953529294085 330.9531547003904Q716.5953529294085 321.2361583054759 719.4172079430831 314.1692518364471Q722.2390629567578 307.1023453674183 727.7110078963183 302.3174607790134L727.7110078963183 302.3174607790134L750.5066888328729 283.05523307697314Q755.9786337724335 278.4666514460413 764.542350292194 276.18462956541737Q773.1306046816387 273.87806981510937 784.6143276938105 273.87806981510937L784.6143276938105 273.87806981510937L828.7824931252404 273.87806981510937Q833.0030067109103 273.87806981510937 834.9660362856406 275.81656152015546Q836.9045279906867 277.75505322520155 836.9045279906867 282.00010468055564L836.9045279906867 282.00010468055564L836.9045279906867 303.3725891754309Q836.9045279906867 305.6791489257389 836.2910812485834 307.2741104552072Q835.6530966367961 308.86907198467554 834.4262031525898 309.924200381093L834.4262031525898 309.924200381093L811.4587571282462 328.99012512566026Q810.7471589074065 329.70172334649993 809.2503488566747 330.24155647955075Q807.753538805943 330.75685174291743 805.9868121886857 330.75685174291743L805.9868121886857 330.75685174291743L783.0193661643422 330.75685174291743L783.0193661643422 356.2026226053579Q783.1911312521311 355.8590924297801 783.6328129064453 355.4174107754658Q784.0744945607597 354.97572912115146 784.4180247363374 354.6076610758896L784.4180247363374 354.6076610758896L807.2137056728922 335.3699712435334Q808.0970689815207 334.65837302269375 809.5938790322525 334.21669136837943Q811.1152269526684 333.77500971406516 812.8819535699256 333.77500971406516L812.8819535699256 333.77500971406516L840.2662161374121 333.77500971406516Q844.4867297230821 333.77500971406516 846.4497592978123 335.71350141911125Q848.3882510028584 337.65199312415734 848.3882510028584 341.89704457951143L848.3882510028584 341.89704457951143L848.3882510028584 396.4938046266956Q848.3882510028584 398.7758265073195 847.7748042607552 400.37078803678776Q847.136819648968 401.9657495662561 845.9099261647616 403.0208779626736L845.9099261647616 403.0208779626736L822.942480140418 422.11134057692493Q822.2308819195783 422.82293879776466 820.7340718688465 423.3382340611313Q819.2372618181147 423.8780671941821 817.4705352008575 423.8780671941821ZM784.6143276938105 402.84911287488467L840.2662161374121 402.84911287488467Q843.6033664144536 402.84911287488467 845.1247143348694 401.3523028241529Q846.6215243856012 399.8554927734211 846.6215243856012 396.4938046266956L846.6215243856012 396.4938046266956L846.6215243856012 341.89704457951143Q846.6215243856012 338.53535643278593 845.1247143348694 337.0385463820541Q843.6033664144536 335.54173633132234 840.2662161374121 335.54173633132234L840.2662161374121 335.54173633132234L812.8819535699256 335.54173633132234Q809.5202654232002 335.54173633132234 808.0234553724683 337.0385463820541Q806.5021074520524 338.53535643278593 806.5021074520524 341.89704457951143L806.5021074520524 341.89704457951143L806.5021074520524 369.4530722347869L789.3746744125312 369.4530722347869Q785.3013880449661 369.4530722347869 783.2892827308676 367.34281544195187Q781.252639547085 365.20802077943273 781.252639547085 360.7912042362898L781.252639547085 360.7912042362898L781.252639547085 318.5860683795901Q781.252639547085 314.1692518364471 783.9027294729708 311.96084356487563Q786.5528193988566 309.75243529330413 792.0247643384171 309.75243529330413L792.0247643384171 309.75243529330413L828.7824931252404 309.75243529330413Q832.1196434022818 309.75243529330413 833.6409913226977 308.23108737288817Q835.1378013734295 306.7342773221564 835.1378013734295 303.3725891754309L835.1378013734295 303.3725891754309L835.1378013734295 282.00010468055564Q835.1378013734295 278.6384165338302 833.6409913226977 277.14160648309837Q832.1196434022818 275.64479643236655 828.7824931252404 275.64479643236655L828.7824931252404 275.64479643236655L784.6143276938105 275.64479643236655Q762.5302449780955 275.64479643236655 751.8317337958158 284.47842951865255Q741.1332226135362 293.31206260493855 741.1332226135362 311.69092699835016L741.1332226135362 311.69092699835016L741.1332226135362 366.80298230890105Q741.1332226135362 385.1818467023127 751.8317337958158 394.01547978859867Q762.5302449780955 402.84911287488467 784.6143276938105 402.84911287488467L784.6143276938105 402.84911287488467ZM827.3592966835611 386.9485733195699L792.196529426206 386.9485733195699Q782.4795330312913 386.9485733195699 776.2959898708912 385.7216798353635Q770.112446710491 384.47024848147305 766.5789934759766 381.74654494653487Q763.0455402414623 378.99830354191255 761.7204952785194 374.67963847750605Q760.3954503155765 370.33643554341546 760.3954503155765 364.1528923830153L760.3954503155765 364.1528923830153L760.3954503155765 314.68454709981376Q760.3954503155765 302.14569569122455 766.06369821261 296.8455158394529Q771.7074082399592 291.54533598768137 788.6630761916916 291.54533598768137L788.6630761916916 291.54533598768137L819.2372618181147 291.54533598768137L819.2372618181147 293.31206260493855L788.6630761916916 293.31206260493855Q773.1306046816387 293.31206260493855 767.6341218723941 298.1705608023958Q762.1621769328336 303.0290589998531 762.1621769328336 314.68454709981376L762.1621769328336 314.68454709981376L762.1621769328336 364.1528923830153Q762.1621769328336 375.63661539518705 768.2721064841814 380.42149998359196Q774.3574981658451 385.1818467023127 792.196529426206 385.1818467023127L792.196529426206 385.1818467023127L825.5925700663038 385.1818467023127L825.5925700663038 351.4422758866371L827.3592966835611 351.4422758866371L827.3592966835611 386.9485733195699ZM922.0509357946098 423.8780671941821L866.2272822632193 423.8780671941821Q861.9822308078652 423.8780671941821 860.0437391028191 421.939575489136Q858.105247397773 419.97654591440585 858.105247397773 415.75603232873584L858.105247397773 415.75603232873584L858.105247397773 395.0706081850162Q858.105247397773 392.7885863043923 858.7186941398762 391.19362477492405Q859.3321408819794 389.5986632454557 860.58357223587 388.5435348490382L860.58357223587 388.5435348490382L878.250838408442 373.69812369014096Q868.8773721891051 370.8762686764662 863.479040858597 364.07927877396287Q858.105247397773 357.2577510017754 858.105247397773 344.5471345053972L858.105247397773 344.5471345053972L858.105247397773 325.99650502419667Q858.105247397773 318.04623524653925 860.7553373236588 311.8626920861391Q863.4054272495446 305.6791489257389 868.3375390560543 301.4340974703848L868.3375390560543 301.4340974703848L891.3049850803977 282.17186976834455Q896.0898696688027 278.29488635825237 903.1567761378316 276.08647808668087Q910.2236826068604 273.87806981510937 919.2290807809352 273.87806981510937L919.2290807809352 273.87806981510937L968.6974260641366 273.87806981510937Q972.9424775194908 273.87806981510937 974.8809692245368 275.81656152015546Q976.819460929583 277.75505322520155 976.819460929583 282.00010468055564L976.819460929583 282.00010468055564L976.819460929583 303.0290589998531Q976.819460929583 305.33561875016113 976.2060141874797 306.90604240994526Q975.5925674453766 308.5010039394136 974.3411360914861 309.5561323358311L974.3411360914861 309.5561323358311L958.4405965361714 322.8065819652601Q969.5807893727653 325.28490680335693 976.3777792752687 332.08189670586034Q983.1747691777721 338.90342447804784 983.1747691777721 353.2090025038943L983.1747691777721 353.2090025038943L983.1747691777721 371.75963198509487Q983.1747691777721 379.7099017627522 980.5246792518863 385.89344492315246Q977.8745893260004 392.0769880835526 972.7707124317019 396.3220395389067L972.7707124317019 396.3220395389067L949.9750314951472 415.38796428347393Q945.0183818189535 419.4612506510391 937.9514753499246 421.66965892261067Q930.8845688808958 423.8780671941821 922.0509357946098 423.8780671941821L922.0509357946098 423.8780671941821ZM889.022963199774 402.84911287488467L944.8466167311645 402.84911287488467Q961.8022846828968 402.84911287488467 971.6174325565479 394.80069161849076Q981.4080425605148 386.77680823178105 981.4080425605148 371.75963198509487L981.4080425605148 371.75963198509487L981.4080425605148 353.2090025038943Q981.4080425605148 338.363591344997 973.8258408281193 332.00828309680793Q966.2191012260398 325.6529748486189 953.8520149052395 323.88624823136166L953.8520149052395 323.88624823136166L927.5228807341705 320.3527949968473Q925.2408588535466 320.15649203937426 923.9894274996559 318.5860683795901Q922.7625340154497 316.99110685012175 922.7625340154497 314.68454709981376L922.7625340154497 314.68454709981376Q922.7625340154497 312.4025252191899 923.9894274996559 310.881177298774Q925.2408588535466 309.38436724804217 927.5228807341705 309.38436724804217L927.5228807341705 309.38436724804217L968.6974260641366 309.38436724804217Q972.0591142108622 309.38436724804217 973.5559242615939 307.8875571973104Q975.0527343123258 306.3907471465786 975.0527343123258 303.0290589998531L975.0527343123258 303.0290589998531L975.0527343123258 282.00010468055564Q975.0527343123258 278.6384165338302 973.5559242615939 277.14160648309837Q972.0591142108622 275.64479643236655 968.6974260641366 275.64479643236655L968.6974260641366 275.64479643236655L919.2290807809352 275.64479643236655Q902.1016477414141 275.64479643236655 892.3846513464994 283.69321768876046Q882.6676549515848 291.7171010754702 882.6676549515848 306.7342773221564L882.6676549515848 306.7342773221564L882.6676549515848 325.28490680335693Q882.6676549515848 340.13031796225425 890.1762430749279 346.4856262104433Q897.684831198271 352.84093445863243 910.0519175190714 354.6076610758896L910.0519175190714 354.6076610758896L936.5528167779294 358.33741726787696Q938.8348386585533 358.50918235566587 939.9881185337072 359.90784092766114Q941.1413984088613 361.3310373693406 941.1413984088613 364.32465747080414L941.1413984088613 364.32465747080414Q941.1413984088613 366.4594521333233 939.9881185337072 367.95626218405505Q938.8348386585533 369.4530722347869 936.5528167779294 369.4530722347869L936.5528167779294 369.4530722347869L889.022963199774 369.4530722347869Q885.6612750530485 369.4530722347869 884.1644650023167 370.94988228551864Q882.6676549515848 372.47123020593455 882.6676549515848 375.80838048297596L882.6676549515848 375.80838048297596L882.6676549515848 396.4938046266956Q882.6676549515848 399.8554927734211 884.1644650023167 401.3523028241529Q885.6612750530485 402.84911287488467 889.022963199774 402.84911287488467L889.022963199774 402.84911287488467ZM919.9406790017749 291.54533598768137L959.152194757011 291.54533598768137L959.152194757011 293.31206260493855L919.9406790017749 293.31206260493855Q912.5057044874842 293.31206260493855 908.0888879443412 297.3853489725037Q903.6720714011983 301.4340974703848 903.6720714011983 307.617640630785L903.6720714011983 307.617640630785L903.6720714011983 322.1195216141045Q903.6720714011983 328.30306477450466 906.1503962392951 330.75685174291743Q908.628721077392 333.23517658101434 912.7020074449572 333.9467748018541L912.7020074449572 333.9467748018541L949.9750314951472 341.5535144039336Q955.2752113469189 342.6086428003511 958.7105131026967 346.1420960348655Q962.1703527281586 349.6755492693799 962.1703527281586 358.8527125312437L962.1703527281586 358.8527125312437L962.1703527281586 369.10954205920905Q962.1703527281586 376.88804674907755 956.8701728763871 381.9183100343237Q951.5699930246155 386.9485733195699 942.5400569808565 386.9485733195699L942.5400569808565 386.9485733195699L898.5681945068995 386.9485733195699L898.5681945068995 385.1818467023127L942.5400569808565 385.1818467023127Q950.686629715987 385.1818467023127 955.5451279134442 380.66687868043323Q960.4036261109015 376.17644852823787 960.4036261109015 369.10954205920905L960.4036261109015 369.10954205920905L960.4036261109015 358.8527125312437Q960.4036261109015 350.5589125780085 957.4836196184903 347.46714099780843Q954.5636131260792 344.37536941760834 949.6069634498854 343.32024102119084L949.6069634498854 343.32024102119084L912.3339393996953 335.71350141911125Q907.7453577687634 334.8301381104826 904.8253512763522 332.08189670586034Q901.905344783941 329.35819317092216 901.905344783941 322.1195216141045L901.905344783941 322.1195216141045L901.905344783941 307.617640630785Q901.905344783941 300.5507341617562 906.8619944601348 296.0603040095608Q911.8186441363287 291.54533598768137 919.9406790017749 291.54533598768137L919.9406790017749 291.54533598768137ZM1073.474129615362 394.1872448763876L1005.9704501143267 413.44947257842784Q1001.5536335711837 414.1610707992676 999.5169903874012 412.46795779106276Q997.5048850733026 410.799382652542 997.5048850733026 406.21080102161017L997.5048850733026 406.21080102161017L997.5048850733026 382.8752869520047Q997.5048850733026 380.42149998359196 998.1919454244583 378.72838697538714Q998.903543645298 377.05981183686646 1000.1549749991884 375.80838048297596L1000.1549749991884 375.80838048297596L1022.926118066059 356.7424557384087Q1023.8094813746875 356.03085751756896 1025.0609127285782 355.4910243845182Q1026.2878062127845 354.97572912115146 1027.8827677422528 354.6076610758896L1027.8827677422528 354.6076610758896L1037.5997641371673 352.1538741074768L1005.258851893487 343.4920061089797Q1001.210103395606 342.78040788814 999.3452252996121 340.74376470435743Q997.5048850733026 338.7071215205748 997.5048850733026 334.48660793490484L997.5048850733026 334.48660793490484L997.5048850733026 311.1510938652994Q997.5048850733026 308.86907198467554 998.0201803366692 307.2741104552072Q998.5600134697202 305.6791489257389 999.6151418661376 304.7957856171103L999.6151418661376 304.7957856171103L1022.5825878904811 285.7053230028589Q1023.4659511991098 285.01826265170337 1025.0609127285782 284.65019460644146Q1026.6558742580464 284.30666443086363 1028.7661310508813 284.65019460644146L1028.7661310508813 284.65019460644146L1028.93789613867 284.65019460644146L1096.2452726822326 303.9124223084817Q1107.9252986518773 307.2741104552072 1113.9125388548046 313.2858885278185Q1119.924316927416 319.27312873074567 1119.924316927416 333.06341149322543L1119.924316927416 333.06341149322543L1119.924316927416 345.7740279896036Q1119.924316927416 353.920600724734 1117.7159086558445 359.12262909776905Q1115.5075003842728 364.32465747080414 1111.6305169741806 367.68634561752964L1111.6305169741806 367.68634561752964L1088.6630709498372 386.9485733195699Q1086.0129810239514 389.25513306987796 1082.2096112229115 390.9237082083986Q1078.4062414218718 392.5922833469193 1073.474129615362 394.1872448763876L1073.474129615362 394.1872448763876ZM1028.4226008753035 392.4205182591304L1095.729977418866 373.15829055709014Q1106.6738672979868 369.9929053678377 1112.4157288040728 364.4228089495407Q1118.1575903101586 358.8527125312437 1118.1575903101586 345.7740279896036L1118.1575903101586 345.7740279896036L1118.1575903101586 333.06341149322543Q1118.1575903101586 319.98472695158534 1112.4157288040728 314.41463053328835Q1106.6738672979868 308.86907198467554 1095.729977418866 305.6791489257389L1095.729977418866 305.6791489257389L1028.4226008753035 286.41692122369864Q1025.0609127285782 285.7053230028589 1023.5641026778462 287.12851944453837Q1022.0427547574303 288.5517158862177 1022.0427547574303 291.88886616325914L1022.0427547574303 291.88886616325914L1022.0427547574303 315.2243802328646Q1022.0427547574303 318.5860683795901 1023.5641026778462 320.25464351811075Q1025.0609127285782 321.92321865663143 1028.4226008753035 322.46305178968225L1028.4226008753035 322.46305178968225L1079.1178396427115 336.057031594689Q1080.8845662599688 336.42509963995093 1081.498013002072 337.13669786079066Q1082.1114597441751 337.8237582119462 1082.1114597441751 339.4187197414145L1082.1114597441751 339.4187197414145Q1082.1114597441751 341.01368127088284 1081.498013002072 341.7252794917225Q1080.8845662599688 342.43687771256225 1079.1178396427115 342.78040788814L1079.1178396427115 342.78040788814L1028.4226008753035 356.3743876931468Q1025.0609127285782 356.9142208261976 1023.5641026778462 358.5827959647183Q1022.0427547574303 360.27590897292305 1022.0427547574303 363.63759711964855L1022.0427547574303 363.63759711964855L1022.0427547574303 386.9485733195699Q1022.0427547574303 390.3102614662954 1023.5641026778462 391.70892003829067Q1025.0609127285782 393.13211647997014 1028.4226008753035 392.4205182591304L1028.4226008753035 392.4205182591304ZM1090.945092830461 358.33741726787696L1090.945092830461 358.33741726787696L1037.9432943127451 373.52635860235205L1037.9432943127451 371.75963198509487L1090.6015626548833 356.5706906506198Q1094.3067809771865 355.4910243845182 1096.88325729402 353.1108510251578Q1099.435195741169 350.73067766579743 1099.435195741169 345.7740279896036L1099.435195741169 345.7740279896036L1099.435195741169 333.06341149322543Q1099.435195741169 328.1067618170316 1096.88325729402 325.99650502419667Q1094.3067809771865 323.88624823136166 1090.6015626548833 322.8065819652601L1090.6015626548833 322.8065819652601L1037.9432943127451 307.617640630785L1037.9432943127451 305.8509140135278L1090.945092830461 321.03985534800285Q1095.361909373604 322.2912867018934 1098.2819158660152 324.76961153999025Q1101.2019223584266 327.223398508403 1101.2019223584266 333.06341149322543L1101.2019223584266 333.06341149322543L1101.2019223584266 345.7740279896036Q1101.2019223584266 351.614040974426 1098.2819158660152 354.3622823790483Q1095.361909373604 357.08598591398646 1090.945092830461 358.33741726787696Z " fill="black" transform="matrix(0.7813028530270654,0,0,0.7813028530270655,0,27.420572387238295)"/></g></svg>